<mxfile host="65bd71144e" pages="2">
    <diagram id="ZgnTUARB-lOWHbY6mk95" name="Class Diagram">
        <mxGraphModel dx="1154" dy="2083" grid="1" gridSize="10" guides="1" tooltips="1" connect="1" arrows="1" fold="1" page="1" pageScale="1" pageWidth="850" pageHeight="1100" math="0" shadow="0">
            <root>
                <mxCell id="0"/>
                <mxCell id="1" parent="0"/>
                <mxCell id="__c8LaKkfx81oe4MihkJ-2" style="edgeStyle=orthogonalEdgeStyle;rounded=0;orthogonalLoop=1;jettySize=auto;html=1;endArrow=none;endFill=0;" parent="1" source="HqtkJnOz3-jnZYOjqyjQ-5" target="9Kk5tFHYM9POZvwG94jr-7" edge="1">
                    <mxGeometry relative="1" as="geometry"/>
                </mxCell>
                <mxCell id="HqtkJnOz3-jnZYOjqyjQ-5" value="&lt;p style=&quot;margin:0px;margin-top:4px;text-align:center;&quot;&gt;&lt;i&gt;&amp;lt;&amp;lt;Interface&amp;gt;&amp;gt;&lt;/i&gt;&lt;br&gt;&lt;b&gt;IGitRepoRepository&lt;/b&gt;&lt;/p&gt;&lt;hr size=&quot;1&quot;&gt;&lt;hr size=&quot;1&quot;&gt;&lt;p style=&quot;margin:0px;margin-left:4px;&quot;&gt;+ ReadRepoByID() : GitRepo&lt;/p&gt;&lt;p style=&quot;margin:0px;margin-left:4px;&quot;&gt;+ ReadRepoByUri() : GitRepo&lt;br&gt;&lt;/p&gt;&lt;p style=&quot;margin:0px;margin-left:4px;&quot;&gt;+ ReadAllRepos() : IEnumerable&amp;lt;GitRepo&amp;gt;&lt;/p&gt;&lt;p style=&quot;margin:0px;margin-left:4px;&quot;&gt;+ DeleteRepo() : Status&lt;br&gt;&lt;/p&gt;&lt;p style=&quot;margin:0px;margin-left:4px;&quot;&gt;+ CreateRepo() : (Status, GitRepo) &lt;br&gt;&lt;/p&gt;&lt;p style=&quot;margin:0px;margin-left:4px;&quot;&gt;&lt;br&gt;&lt;/p&gt;" style="verticalAlign=top;align=left;overflow=fill;fontSize=12;fontFamily=Helvetica;html=1;" parent="1" vertex="1">
                    <mxGeometry x="50" y="350" width="260" height="140" as="geometry"/>
                </mxCell>
                <mxCell id="HqtkJnOz3-jnZYOjqyjQ-10" style="edgeStyle=orthogonalEdgeStyle;rounded=0;orthogonalLoop=1;jettySize=auto;html=1;strokeColor=default;endArrow=classic;endFill=1;dashed=1;" parent="1" source="HqtkJnOz3-jnZYOjqyjQ-8" target="HqtkJnOz3-jnZYOjqyjQ-5" edge="1">
                    <mxGeometry relative="1" as="geometry">
                        <Array as="points">
                            <mxPoint x="180" y="660"/>
                            <mxPoint x="180" y="660"/>
                        </Array>
                    </mxGeometry>
                </mxCell>
                <mxCell id="HqtkJnOz3-jnZYOjqyjQ-39" style="edgeStyle=orthogonalEdgeStyle;rounded=0;orthogonalLoop=1;jettySize=auto;html=1;strokeColor=default;endArrow=none;endFill=0;" parent="1" source="HqtkJnOz3-jnZYOjqyjQ-8" target="Dkp8TsZKQVdTGly8Ojuy-2" edge="1">
                    <mxGeometry relative="1" as="geometry"/>
                </mxCell>
                <mxCell id="HqtkJnOz3-jnZYOjqyjQ-8" value="&lt;p style=&quot;margin:0px;margin-top:4px;text-align:center;&quot;&gt;&lt;b&gt;GitRepoRepository&lt;/b&gt;&lt;/p&gt;&lt;hr size=&quot;1&quot;&gt;&amp;nbsp;- _context : DbContext&lt;br&gt;&lt;hr size=&quot;1&quot;&gt;&lt;p style=&quot;margin:0px;margin-left:4px;&quot;&gt;&lt;br&gt;&lt;/p&gt;" style="verticalAlign=top;align=left;overflow=fill;fontSize=12;fontFamily=Helvetica;html=1;" parent="1" vertex="1">
                    <mxGeometry x="100" y="610" width="160" height="80" as="geometry"/>
                </mxCell>
                <mxCell id="HqtkJnOz3-jnZYOjqyjQ-43" style="edgeStyle=orthogonalEdgeStyle;rounded=0;orthogonalLoop=1;jettySize=auto;html=1;strokeColor=default;endArrow=none;endFill=0;" parent="1" source="HqtkJnOz3-jnZYOjqyjQ-8" target="HqtkJnOz3-jnZYOjqyjQ-41" edge="1">
                    <mxGeometry relative="1" as="geometry">
                        <Array as="points">
                            <mxPoint x="705" y="680"/>
                        </Array>
                        <mxPoint x="500" y="740" as="targetPoint"/>
                    </mxGeometry>
                </mxCell>
                <mxCell id="Jhw3aj6RXxSECgafTjDy-15" style="edgeStyle=orthogonalEdgeStyle;rounded=0;orthogonalLoop=1;jettySize=auto;html=1;endArrow=classic;endFill=1;" parent="1" source="Dkp8TsZKQVdTGly8Ojuy-2" target="Jhw3aj6RXxSECgafTjDy-1" edge="1">
                    <mxGeometry relative="1" as="geometry"/>
                </mxCell>
                <mxCell id="Jhw3aj6RXxSECgafTjDy-11" style="edgeStyle=orthogonalEdgeStyle;rounded=0;orthogonalLoop=1;jettySize=auto;html=1;endArrow=none;endFill=0;" parent="1" source="HqtkJnOz3-jnZYOjqyjQ-21" target="Jhw3aj6RXxSECgafTjDy-7" edge="1">
                    <mxGeometry relative="1" as="geometry">
                        <mxPoint x="640" y="180" as="sourcePoint"/>
                    </mxGeometry>
                </mxCell>
                <mxCell id="HqtkJnOz3-jnZYOjqyjQ-20" value="&lt;p style=&quot;margin:0px;margin-top:4px;text-align:center;&quot;&gt;&lt;b&gt;Program&lt;/b&gt;&lt;/p&gt;&lt;hr size=&quot;1&quot;&gt;&lt;hr size=&quot;1&quot;&gt;&lt;p style=&quot;margin:0px;margin-left:4px;&quot;&gt;+ main(): static void&lt;/p&gt;&lt;p style=&quot;margin:0px;margin-left:4px;&quot;&gt;+ HandleRepo() : GitRepo&lt;/p&gt;" style="verticalAlign=top;align=left;overflow=fill;fontSize=12;fontFamily=Helvetica;html=1;" parent="1" vertex="1">
                    <mxGeometry x="420" y="10" width="160" height="90" as="geometry"/>
                </mxCell>
                <mxCell id="9Kk5tFHYM9POZvwG94jr-3" style="edgeStyle=orthogonalEdgeStyle;rounded=0;orthogonalLoop=1;jettySize=auto;html=1;strokeColor=default;endArrow=none;endFill=0;" parent="1" source="HqtkJnOz3-jnZYOjqyjQ-21" target="HqtkJnOz3-jnZYOjqyjQ-5" edge="1">
                    <mxGeometry relative="1" as="geometry">
                        <Array as="points">
                            <mxPoint x="410" y="420"/>
                        </Array>
                    </mxGeometry>
                </mxCell>
                <mxCell id="Jhw3aj6RXxSECgafTjDy-10" style="edgeStyle=orthogonalEdgeStyle;rounded=0;orthogonalLoop=1;jettySize=auto;html=1;endArrow=none;endFill=0;" parent="1" source="HqtkJnOz3-jnZYOjqyjQ-21" target="Jhw3aj6RXxSECgafTjDy-6" edge="1">
                    <mxGeometry relative="1" as="geometry"/>
                </mxCell>
                <mxCell id="Jhw3aj6RXxSECgafTjDy-12" style="edgeStyle=orthogonalEdgeStyle;rounded=0;orthogonalLoop=1;jettySize=auto;html=1;endArrow=none;endFill=0;" parent="1" source="HqtkJnOz3-jnZYOjqyjQ-21" target="HqtkJnOz3-jnZYOjqyjQ-20" edge="1">
                    <mxGeometry relative="1" as="geometry"/>
                </mxCell>
                <mxCell id="HqtkJnOz3-jnZYOjqyjQ-21" value="&lt;p style=&quot;margin:0px;margin-top:4px;text-align:center;&quot;&gt;&lt;b&gt;GitInsight&lt;/b&gt;&lt;/p&gt;&lt;hr size=&quot;1&quot;&gt;&lt;p style=&quot;margin:0px;margin-left:4px;&quot;&gt;&lt;br&gt;&lt;/p&gt;&lt;hr size=&quot;1&quot;&gt;&lt;p style=&quot;margin:0px;margin-left:4px;&quot;&gt;+ GitAuthorMode() : static GitFrequencyModeDTO&lt;br&gt;&lt;/p&gt;&lt;p style=&quot;margin:0px;margin-left:4px;&quot;&gt;+ GitFrequencyMode() : static GitAuthorModeDTO&lt;br&gt;&lt;/p&gt;" style="verticalAlign=top;align=left;overflow=fill;fontSize=12;fontFamily=Helvetica;html=1;" parent="1" vertex="1">
                    <mxGeometry x="330" y="140" width="340" height="100" as="geometry"/>
                </mxCell>
                <mxCell id="HqtkJnOz3-jnZYOjqyjQ-42" style="edgeStyle=orthogonalEdgeStyle;rounded=0;orthogonalLoop=1;jettySize=auto;html=1;strokeColor=default;endArrow=classic;endFill=1;dashed=1;" parent="1" source="HqtkJnOz3-jnZYOjqyjQ-40" target="HqtkJnOz3-jnZYOjqyjQ-41" edge="1">
                    <mxGeometry relative="1" as="geometry">
                        <Array as="points">
                            <mxPoint x="660" y="940"/>
                        </Array>
                    </mxGeometry>
                </mxCell>
                <mxCell id="HqtkJnOz3-jnZYOjqyjQ-40" value="&lt;p style=&quot;margin:0px;margin-top:4px;text-align:center;&quot;&gt;&lt;b&gt;PSQL&lt;/b&gt;&lt;br&gt;&lt;/p&gt;&lt;hr size=&quot;1&quot;&gt;" style="verticalAlign=top;align=left;overflow=fill;fontSize=12;fontFamily=Helvetica;html=1;" parent="1" vertex="1">
                    <mxGeometry x="495" y="920" width="90" height="40" as="geometry"/>
                </mxCell>
                <mxCell id="Jhw3aj6RXxSECgafTjDy-14" style="edgeStyle=orthogonalEdgeStyle;rounded=0;orthogonalLoop=1;jettySize=auto;html=1;endArrow=block;endFill=0;dashed=1;" parent="1" source="Jhw3aj6RXxSECgafTjDy-13" target="HqtkJnOz3-jnZYOjqyjQ-41" edge="1">
                    <mxGeometry relative="1" as="geometry">
                        <mxPoint x="460" y="790" as="targetPoint"/>
                    </mxGeometry>
                </mxCell>
                <mxCell id="HqtkJnOz3-jnZYOjqyjQ-41" value="&lt;p style=&quot;margin:0px;margin-top:4px;text-align:center;&quot;&gt;&lt;i&gt;&amp;lt;&amp;lt;Interface&amp;gt;&amp;gt;&lt;/i&gt;&lt;/p&gt;&lt;p style=&quot;margin:0px;margin-top:4px;text-align:center;&quot;&gt;&lt;b&gt;DbContext&lt;/b&gt;&lt;br&gt;&lt;/p&gt;&lt;hr size=&quot;1&quot;&gt;&lt;p style=&quot;margin:0px;margin-left:4px;&quot;&gt;&lt;br&gt;&lt;/p&gt;&lt;hr size=&quot;1&quot;&gt;" style="verticalAlign=top;align=left;overflow=fill;fontSize=12;fontFamily=Helvetica;html=1;" parent="1" vertex="1">
                    <mxGeometry x="645" y="852.5" width="120" height="60" as="geometry"/>
                </mxCell>
                <mxCell id="9Kk5tFHYM9POZvwG94jr-1" value="&lt;p style=&quot;margin:0px;margin-top:4px;text-align:center;&quot;&gt;&lt;b&gt;SQLite&lt;/b&gt;&lt;br&gt;&lt;/p&gt;&lt;hr size=&quot;1&quot;&gt;" style="verticalAlign=top;align=left;overflow=fill;fontSize=12;fontFamily=Helvetica;html=1;" parent="1" vertex="1">
                    <mxGeometry x="480" y="860" width="120" height="45" as="geometry"/>
                </mxCell>
                <mxCell id="9Kk5tFHYM9POZvwG94jr-2" style="edgeStyle=orthogonalEdgeStyle;rounded=0;orthogonalLoop=1;jettySize=auto;html=1;strokeColor=default;endArrow=classic;endFill=1;dashed=1;" parent="1" source="9Kk5tFHYM9POZvwG94jr-1" target="HqtkJnOz3-jnZYOjqyjQ-41" edge="1">
                    <mxGeometry relative="1" as="geometry">
                        <mxPoint x="670" y="790" as="sourcePoint"/>
                        <mxPoint x="580" y="790" as="targetPoint"/>
                    </mxGeometry>
                </mxCell>
                <mxCell id="9Kk5tFHYM9POZvwG94jr-7" value="&lt;p style=&quot;margin:0px;margin-top:4px;text-align:center;&quot;&gt;&lt;i&gt;&amp;lt;&amp;lt;Enumeration&amp;gt;&amp;gt;&lt;/i&gt;&lt;br&gt;&lt;b&gt;Status&lt;/b&gt;&lt;br&gt;&lt;/p&gt;&lt;hr size=&quot;1&quot;&gt;&lt;div&gt;&amp;nbsp;CREATED&lt;br&gt;&amp;nbsp;UPDATED&lt;br&gt;&amp;nbsp;DELETED&lt;br&gt;&amp;nbsp;NOTFOUND&lt;br&gt;&amp;nbsp;BADREQUEST&lt;br&gt;&amp;nbsp;CONFLICT&lt;/div&gt;&lt;div&gt;&amp;nbsp; &lt;br&gt;&lt;/div&gt;&lt;hr size=&quot;1&quot;&gt;&lt;p style=&quot;margin:0px;margin-left:4px;&quot;&gt;&lt;br&gt;&lt;/p&gt;" style="verticalAlign=top;align=left;overflow=fill;fontSize=12;fontFamily=Helvetica;html=1;" parent="1" vertex="1">
                    <mxGeometry x="470" y="420" width="110" height="150" as="geometry"/>
                </mxCell>
                <mxCell id="Jhw3aj6RXxSECgafTjDy-16" style="edgeStyle=orthogonalEdgeStyle;rounded=0;orthogonalLoop=1;jettySize=auto;html=1;endArrow=classic;endFill=1;" parent="1" source="Jhw3aj6RXxSECgafTjDy-1" target="Jhw3aj6RXxSECgafTjDy-2" edge="1">
                    <mxGeometry relative="1" as="geometry"/>
                </mxCell>
                <mxCell id="Jhw3aj6RXxSECgafTjDy-1" value="&lt;p style=&quot;margin:0px;margin-top:4px;text-align:center;&quot;&gt;&lt;b&gt;GitCommit&lt;/b&gt;&lt;br&gt;&lt;/p&gt;&lt;hr size=&quot;1&quot;&gt;&lt;p style=&quot;margin:0px;margin-left:4px;&quot;&gt;+ Id : int&lt;br&gt;&lt;/p&gt;&lt;p style=&quot;margin:0px;margin-left:4px;&quot;&gt;+ Committer : GitSignature&lt;/p&gt;&lt;p style=&quot;margin:0px;margin-left:4px;&quot;&gt;+ Message : String&lt;/p&gt;&lt;p style=&quot;margin:0px;margin-left:4px;&quot;&gt;+ Encoding : String&lt;/p&gt;&lt;p style=&quot;margin:0px;margin-left:4px;&quot;&gt;+ Sha : String&lt;/p&gt;&lt;p style=&quot;margin:0px;margin-left:4px;&quot;&gt;+ ComitterWhen : DateTimeOffset&lt;/p&gt;&lt;p style=&quot;margin:0px;margin-left:4px;&quot;&gt;+ belongsTo : GitRepo&lt;/p&gt;&lt;hr size=&quot;1&quot;&gt;" style="verticalAlign=top;align=left;overflow=fill;fontSize=12;fontFamily=Helvetica;html=1;" parent="1" vertex="1">
                    <mxGeometry x="260" y="915" width="210" height="145" as="geometry"/>
                </mxCell>
                <mxCell id="Jhw3aj6RXxSECgafTjDy-2" value="&lt;p style=&quot;margin:0px;margin-top:4px;text-align:center;&quot;&gt;&lt;b&gt;GitSignature&lt;/b&gt;&lt;/p&gt;&lt;hr size=&quot;1&quot;&gt;&lt;p style=&quot;margin:0px;margin-left:4px;&quot;&gt;+ Id : int&lt;/p&gt;&lt;p style=&quot;margin:0px;margin-left:4px;&quot;&gt;+ Name : String&lt;/p&gt;&lt;p style=&quot;margin:0px;margin-left:4px;&quot;&gt;+ Email : String&lt;/p&gt;&lt;p style=&quot;margin:0px;margin-left:4px;&quot;&gt;+ When : DateTimeOffset&lt;/p&gt;&lt;p style=&quot;margin:0px;margin-left:4px;&quot;&gt;+ commits : ICollection&amp;lt;GitRepo&amp;gt;&lt;/p&gt;&lt;hr size=&quot;1&quot;&gt;" style="verticalAlign=top;align=left;overflow=fill;fontSize=12;fontFamily=Helvetica;html=1;" parent="1" vertex="1">
                    <mxGeometry x="35" y="930" width="190" height="115" as="geometry"/>
                </mxCell>
                <mxCell id="Jhw3aj6RXxSECgafTjDy-6" value="&lt;p style=&quot;margin:0px;margin-top:4px;text-align:center;&quot;&gt;&lt;b&gt;GitFrequencyModeDTO&lt;/b&gt;&lt;/p&gt;&lt;hr size=&quot;1&quot;&gt;&lt;div&gt;&amp;nbsp;+ DateToFrequency :&lt;/div&gt;&lt;div&gt;&amp;nbsp;&amp;nbsp;&amp;nbsp; Dictionary&amp;lt;String,int&amp;gt;&lt;/div&gt;&lt;hr size=&quot;1&quot;&gt;" style="verticalAlign=top;align=left;overflow=fill;fontSize=12;fontFamily=Helvetica;html=1;" parent="1" vertex="1">
                    <mxGeometry x="20" y="137.5" width="150" height="105" as="geometry"/>
                </mxCell>
                <mxCell id="Jhw3aj6RXxSECgafTjDy-7" value="&lt;p style=&quot;margin:0px;margin-top:4px;text-align:center;&quot;&gt;&lt;b&gt;GitAuthorModeDTO&lt;/b&gt;&lt;/p&gt;&lt;hr size=&quot;1&quot;&gt;&lt;div&gt;&amp;nbsp;+ AuthorToDateAndFrequency :&lt;/div&gt;&lt;div&gt;&amp;nbsp;&amp;nbsp;&amp;nbsp; Dictionary&amp;lt;String,GitFrequencyModeDTO&amp;gt;&lt;/div&gt;&lt;hr size=&quot;1&quot;&gt;" style="verticalAlign=top;align=left;overflow=fill;fontSize=12;fontFamily=Helvetica;html=1;" parent="1" vertex="1">
                    <mxGeometry x="580" y="300" width="250" height="95" as="geometry"/>
                </mxCell>
                <mxCell id="Jhw3aj6RXxSECgafTjDy-13" value="&lt;p style=&quot;margin:0px;margin-top:4px;text-align:center;&quot;&gt;&lt;b&gt;GitContext&lt;/b&gt;&lt;br&gt;&lt;/p&gt;&lt;hr size=&quot;1&quot;&gt;&lt;div&gt;&amp;nbsp;Spørg TA om denne &lt;br&gt;&lt;/div&gt;&lt;div&gt;&amp;nbsp;her er nødvendig&lt;/div&gt;&lt;hr size=&quot;1&quot;&gt;" style="verticalAlign=top;align=left;overflow=fill;fontSize=12;fontFamily=Helvetica;html=1;" parent="1" vertex="1">
                    <mxGeometry x="625" y="980" width="160" height="105" as="geometry"/>
                </mxCell>
                <mxCell id="Dkp8TsZKQVdTGly8Ojuy-2" value="&lt;p style=&quot;margin:0px;margin-top:4px;text-align:center;&quot;&gt;&lt;b&gt;GitRepo&lt;/b&gt;&lt;/p&gt;&lt;hr size=&quot;1&quot;&gt;&lt;p style=&quot;margin:0px;margin-left:4px;&quot;&gt;+ Id : int&lt;br&gt;&lt;/p&gt;&lt;p style=&quot;margin:0px;margin-left:4px;&quot;&gt;+ Uri : string&lt;br&gt;&lt;/p&gt;&lt;p style=&quot;margin:0px;margin-left:4px;&quot;&gt;+ Commits : List&amp;lt;GitCommit&amp;gt;&lt;br&gt;&lt;/p&gt;&lt;hr size=&quot;1&quot;&gt;&amp;nbsp;+ DeleteReadOnlyDirectory() : void&lt;br&gt;SPØRG TA OM EQUALS METODE -&amp;nbsp;&lt;br&gt;SKAL DEN VÆRE MED HER?" style="verticalAlign=top;align=left;overflow=fill;fontSize=12;fontFamily=Helvetica;html=1;" parent="1" vertex="1">
                    <mxGeometry x="75" y="730" width="210" height="140" as="geometry"/>
                </mxCell>
                <mxCell id="2" value="&lt;p style=&quot;margin: 0px ; margin-top: 4px ; text-align: center&quot;&gt;&lt;b&gt;Program&lt;/b&gt;&lt;/p&gt;&lt;hr size=&quot;1&quot;&gt;&lt;hr size=&quot;1&quot;&gt;&lt;p style=&quot;margin: 0px ; margin-left: 4px&quot;&gt;+ main(): webapp.build&lt;/p&gt;" style="verticalAlign=top;align=left;overflow=fill;fontSize=12;fontFamily=Helvetica;html=1;" vertex="1" parent="1">
                    <mxGeometry x="1000" y="390" width="160" height="90" as="geometry"/>
                </mxCell>
                <mxCell id="3" value="&lt;p style=&quot;margin: 0px ; margin-top: 4px ; text-align: center&quot;&gt;&lt;b&gt;API&lt;/b&gt;&lt;/p&gt;&lt;hr size=&quot;1&quot;&gt;&lt;hr size=&quot;1&quot;&gt;&lt;p style=&quot;margin: 0px ; margin-left: 4px&quot;&gt;+ MapGet(): JSON&lt;/p&gt;" style="verticalAlign=top;align=left;overflow=fill;fontSize=12;fontFamily=Helvetica;html=1;" vertex="1" parent="1">
                    <mxGeometry x="625" y="-270" width="160" height="90" as="geometry"/>
                </mxCell>
                <mxCell id="4" value="" style="endArrow=none;dashed=1;html=1;dashPattern=1 3;strokeWidth=2;exitX=1;exitY=0.5;exitDx=0;exitDy=0;entryX=0.5;entryY=0;entryDx=0;entryDy=0;" edge="1" parent="1" source="3" target="7">
                    <mxGeometry width="50" height="50" relative="1" as="geometry">
                        <mxPoint x="800" y="50" as="sourcePoint"/>
                        <mxPoint x="900" y="100" as="targetPoint"/>
                    </mxGeometry>
                </mxCell>
                <mxCell id="5" value="" style="endArrow=classic;html=1;entryX=1;entryY=0.5;entryDx=0;entryDy=0;" edge="1" parent="1" target="3">
                    <mxGeometry width="50" height="50" relative="1" as="geometry">
                        <mxPoint x="800" y="-210" as="sourcePoint"/>
                        <mxPoint x="850" as="targetPoint"/>
                    </mxGeometry>
                </mxCell>
                <mxCell id="6" value="&lt;p style=&quot;margin: 0px ; margin-top: 4px ; text-align: center&quot;&gt;&lt;b&gt;WebAssembly&lt;/b&gt;&lt;/p&gt;&lt;hr size=&quot;1&quot;&gt;&lt;hr size=&quot;1&quot;&gt;&lt;p style=&quot;margin: 0px ; margin-left: 4px&quot;&gt;+ FreqMode(): display&lt;/p&gt;&lt;p style=&quot;margin: 0px ; margin-left: 4px&quot;&gt;+ AuthorMode(): display&lt;/p&gt;" style="verticalAlign=top;align=left;overflow=fill;fontSize=12;fontFamily=Helvetica;html=1;" vertex="1" parent="1">
                    <mxGeometry x="1000" y="-210" width="160" height="90" as="geometry"/>
                </mxCell>
                <mxCell id="7" value="&lt;p style=&quot;margin: 0px ; margin-top: 4px ; text-align: center&quot;&gt;&lt;b&gt;Freq.razor&lt;/b&gt;&lt;/p&gt;&lt;hr size=&quot;1&quot;&gt;&lt;hr size=&quot;1&quot;&gt;&lt;p style=&quot;margin: 0px ; margin-left: 4px&quot;&gt;+ OnInitalized(): JSON string&lt;/p&gt;&lt;p style=&quot;margin: 0px ; margin-left: 4px&quot;&gt;&lt;br&gt;&lt;/p&gt;" style="verticalAlign=top;align=left;overflow=fill;fontSize=12;fontFamily=Helvetica;html=1;" vertex="1" parent="1">
                    <mxGeometry x="870" y="110" width="160" height="90" as="geometry"/>
                </mxCell>
                <mxCell id="8" value="&lt;p style=&quot;margin: 0px ; margin-top: 4px ; text-align: center&quot;&gt;&lt;b&gt;Author.razor&lt;/b&gt;&lt;/p&gt;&lt;hr size=&quot;1&quot;&gt;&lt;hr size=&quot;1&quot;&gt;&lt;p style=&quot;margin: 0px ; margin-left: 4px&quot;&gt;+ OnInitalized(): JSON string&lt;/p&gt;" style="verticalAlign=top;align=left;overflow=fill;fontSize=12;fontFamily=Helvetica;html=1;" vertex="1" parent="1">
                    <mxGeometry x="1140" y="110" width="160" height="90" as="geometry"/>
                </mxCell>
                <mxCell id="9" value="" style="endArrow=none;dashed=1;html=1;dashPattern=1 3;strokeWidth=2;exitX=0.5;exitY=0;exitDx=0;exitDy=0;" edge="1" parent="1" source="8">
                    <mxGeometry width="50" height="50" relative="1" as="geometry">
                        <mxPoint x="870" y="50" as="sourcePoint"/>
                        <mxPoint x="790" y="-220" as="targetPoint"/>
                    </mxGeometry>
                </mxCell>
                <mxCell id="10" value="" style="endArrow=none;html=1;exitX=0.5;exitY=0;exitDx=0;exitDy=0;" edge="1" parent="1" source="2">
                    <mxGeometry width="50" height="50" relative="1" as="geometry">
                        <mxPoint x="870" y="200" as="sourcePoint"/>
                        <mxPoint x="1080" y="280" as="targetPoint"/>
                    </mxGeometry>
                </mxCell>
                <mxCell id="11" value="" style="endArrow=none;html=1;" edge="1" parent="1">
                    <mxGeometry width="50" height="50" relative="1" as="geometry">
                        <mxPoint x="1220" y="280" as="sourcePoint"/>
                        <mxPoint x="950" y="280" as="targetPoint"/>
                    </mxGeometry>
                </mxCell>
                <mxCell id="12" value="" style="endArrow=classic;html=1;entryX=0.5;entryY=1;entryDx=0;entryDy=0;" edge="1" parent="1" target="7">
                    <mxGeometry width="50" height="50" relative="1" as="geometry">
                        <mxPoint x="950" y="280" as="sourcePoint"/>
                        <mxPoint x="920" y="150" as="targetPoint"/>
                    </mxGeometry>
                </mxCell>
                <mxCell id="13" value="" style="endArrow=classic;html=1;entryX=0.5;entryY=1;entryDx=0;entryDy=0;" edge="1" parent="1" target="8">
                    <mxGeometry width="50" height="50" relative="1" as="geometry">
                        <mxPoint x="1220" y="280" as="sourcePoint"/>
                        <mxPoint x="990" y="210" as="targetPoint"/>
                    </mxGeometry>
                </mxCell>
                <mxCell id="14" value="" style="line;strokeWidth=2;html=1;" vertex="1" parent="1">
                    <mxGeometry x="1030" y="150" width="110" height="10" as="geometry"/>
                </mxCell>
                <mxCell id="15" value="" style="endArrow=classic;html=1;exitX=0.437;exitY=0.185;exitDx=0;exitDy=0;exitPerimeter=0;entryX=0.5;entryY=1;entryDx=0;entryDy=0;" edge="1" parent="1" source="14" target="6">
                    <mxGeometry width="50" height="50" relative="1" as="geometry">
                        <mxPoint x="870" y="60" as="sourcePoint"/>
                        <mxPoint x="920" y="10" as="targetPoint"/>
                    </mxGeometry>
                </mxCell>
                <mxCell id="16" value="" style="endArrow=none;dashed=1;html=1;dashPattern=1 3;strokeWidth=2;exitX=0.5;exitY=0;exitDx=0;exitDy=0;entryX=0;entryY=0.5;entryDx=0;entryDy=0;" edge="1" parent="1" source="HqtkJnOz3-jnZYOjqyjQ-20" target="3">
                    <mxGeometry width="50" height="50" relative="1" as="geometry">
                        <mxPoint x="530" y="-70" as="sourcePoint"/>
                        <mxPoint x="580" y="-120" as="targetPoint"/>
                    </mxGeometry>
                </mxCell>
                <mxCell id="17" value="" style="endArrow=classic;html=1;entryX=0.5;entryY=0;entryDx=0;entryDy=0;" edge="1" parent="1" target="HqtkJnOz3-jnZYOjqyjQ-20">
                    <mxGeometry width="50" height="50" relative="1" as="geometry">
                        <mxPoint x="510" y="-10" as="sourcePoint"/>
                        <mxPoint x="930" y="-50" as="targetPoint"/>
                    </mxGeometry>
                </mxCell>
            </root>
        </mxGraphModel>
    </diagram>
    <diagram id="Np4IvdS3BJb_so3vXTVA" name="ER">
        <mxGraphModel dx="1102" dy="604" grid="1" gridSize="10" guides="1" tooltips="1" connect="1" arrows="1" fold="1" page="1" pageScale="1" pageWidth="827" pageHeight="1169" math="0" shadow="0">
            <root>
                <mxCell id="0"/>
                <mxCell id="1" parent="0"/>
                <mxCell id="8jnwg-T146BHlQQZsqlL-15" value="" style="edgeStyle=orthogonalEdgeStyle;rounded=0;orthogonalLoop=1;jettySize=auto;html=1;endArrow=none;endFill=0;" edge="1" parent="1" source="GQVKQVq23qvjpslXkNpU-1" target="zPEs7_Zzb0psSSp__cFE-1">
                    <mxGeometry relative="1" as="geometry"/>
                </mxCell>
                <mxCell id="zPEs7_Zzb0psSSp__cFE-1" value="GitRepo" style="rounded=1;arcSize=10;whiteSpace=wrap;html=1;align=center;" vertex="1" parent="1">
                    <mxGeometry x="350" y="220" width="100" height="40" as="geometry"/>
                </mxCell>
                <mxCell id="wfUSnm8ph-DHiuBE5ZHb-8" value="1..1" style="edgeStyle=orthogonalEdgeStyle;rounded=0;orthogonalLoop=1;jettySize=auto;html=1;endArrow=none;endFill=0;" edge="1" parent="1" source="zPEs7_Zzb0psSSp__cFE-2" target="wfUSnm8ph-DHiuBE5ZHb-7">
                    <mxGeometry x="-0.8857" relative="1" as="geometry">
                        <mxPoint x="190" y="530" as="targetPoint"/>
                        <Array as="points">
                            <mxPoint x="160" y="470"/>
                        </Array>
                        <mxPoint as="offset"/>
                    </mxGeometry>
                </mxCell>
                <mxCell id="zPEs7_Zzb0psSSp__cFE-2" value="GitCommit" style="rounded=1;arcSize=10;whiteSpace=wrap;html=1;align=center;" vertex="1" parent="1">
                    <mxGeometry x="110" y="240" width="140" height="60" as="geometry"/>
                </mxCell>
                <mxCell id="Msvr--SGupCb9cgeFkSd-9" style="edgeStyle=orthogonalEdgeStyle;rounded=0;orthogonalLoop=1;jettySize=auto;html=1;endArrow=none;endFill=0;" edge="1" parent="1" source="zPEs7_Zzb0psSSp__cFE-3" target="wfUSnm8ph-DHiuBE5ZHb-7">
                    <mxGeometry relative="1" as="geometry">
                        <Array as="points">
                            <mxPoint x="630" y="470"/>
                        </Array>
                    </mxGeometry>
                </mxCell>
                <mxCell id="Msvr--SGupCb9cgeFkSd-10" value="1..1" style="edgeLabel;html=1;align=center;verticalAlign=middle;resizable=0;points=[];" vertex="1" connectable="0" parent="Msvr--SGupCb9cgeFkSd-9">
                    <mxGeometry x="-0.9176" y="3" relative="1" as="geometry">
                        <mxPoint x="-4" as="offset"/>
                    </mxGeometry>
                </mxCell>
                <mxCell id="zPEs7_Zzb0psSSp__cFE-3" value="GitSignature" style="rounded=1;arcSize=10;whiteSpace=wrap;html=1;align=center;" vertex="1" parent="1">
                    <mxGeometry x="580" y="260" width="100" height="40" as="geometry"/>
                </mxCell>
                <mxCell id="C7HsR-Ec4E76aT7hr7PR-4" style="edgeStyle=orthogonalEdgeStyle;rounded=0;orthogonalLoop=1;jettySize=auto;html=1;endArrow=none;endFill=0;" edge="1" parent="1" source="zPEs7_Zzb0psSSp__cFE-4" target="zPEs7_Zzb0psSSp__cFE-2">
                    <mxGeometry relative="1" as="geometry">
                        <Array as="points">
                            <mxPoint x="250" y="230"/>
                            <mxPoint x="180" y="230"/>
                        </Array>
                    </mxGeometry>
                </mxCell>
                <mxCell id="zPEs7_Zzb0psSSp__cFE-4" value="Message" style="ellipse;whiteSpace=wrap;html=1;align=center;rotation=75;" vertex="1" parent="1">
                    <mxGeometry x="200" y="100" width="100" height="40" as="geometry"/>
                </mxCell>
                <mxCell id="C7HsR-Ec4E76aT7hr7PR-6" style="edgeStyle=orthogonalEdgeStyle;rounded=0;orthogonalLoop=1;jettySize=auto;html=1;endArrow=none;endFill=0;" edge="1" parent="1" source="zPEs7_Zzb0psSSp__cFE-5" target="zPEs7_Zzb0psSSp__cFE-2">
                    <mxGeometry relative="1" as="geometry">
                        <Array as="points">
                            <mxPoint x="190" y="230"/>
                            <mxPoint x="180" y="230"/>
                        </Array>
                    </mxGeometry>
                </mxCell>
                <mxCell id="C7HsR-Ec4E76aT7hr7PR-7" style="edgeStyle=orthogonalEdgeStyle;rounded=0;orthogonalLoop=1;jettySize=auto;html=1;endArrow=none;endFill=0;" edge="1" parent="1" source="zPEs7_Zzb0psSSp__cFE-6" target="zPEs7_Zzb0psSSp__cFE-2">
                    <mxGeometry relative="1" as="geometry">
                        <Array as="points">
                            <mxPoint x="220" y="230"/>
                            <mxPoint x="180" y="230"/>
                        </Array>
                    </mxGeometry>
                </mxCell>
                <mxCell id="zPEs7_Zzb0psSSp__cFE-6" value="Sha" style="ellipse;whiteSpace=wrap;html=1;align=center;rotation=75;" vertex="1" parent="1">
                    <mxGeometry x="170" y="110" width="100" height="40" as="geometry"/>
                </mxCell>
                <mxCell id="zPEs7_Zzb0psSSp__cFE-5" value="Encoding" style="ellipse;whiteSpace=wrap;html=1;align=center;rotation=75;" vertex="1" parent="1">
                    <mxGeometry x="140" y="120" width="100" height="40" as="geometry"/>
                </mxCell>
                <mxCell id="C7HsR-Ec4E76aT7hr7PR-8" style="edgeStyle=orthogonalEdgeStyle;rounded=0;orthogonalLoop=1;jettySize=auto;html=1;endArrow=none;endFill=0;" edge="1" parent="1" source="zPEs7_Zzb0psSSp__cFE-7" target="zPEs7_Zzb0psSSp__cFE-2">
                    <mxGeometry relative="1" as="geometry">
                        <Array as="points">
                            <mxPoint x="160" y="230"/>
                            <mxPoint x="180" y="230"/>
                        </Array>
                    </mxGeometry>
                </mxCell>
                <mxCell id="zPEs7_Zzb0psSSp__cFE-7" value="&lt;u&gt;Id&lt;/u&gt;" style="ellipse;whiteSpace=wrap;html=1;align=center;rotation=75;" vertex="1" parent="1">
                    <mxGeometry x="110" y="130" width="100" height="40" as="geometry"/>
                </mxCell>
                <mxCell id="C7HsR-Ec4E76aT7hr7PR-9" style="edgeStyle=orthogonalEdgeStyle;rounded=0;orthogonalLoop=1;jettySize=auto;html=1;endArrow=none;endFill=0;" edge="1" parent="1" source="zPEs7_Zzb0psSSp__cFE-10" target="zPEs7_Zzb0psSSp__cFE-2">
                    <mxGeometry relative="1" as="geometry">
                        <Array as="points">
                            <mxPoint x="100" y="230"/>
                            <mxPoint x="180" y="230"/>
                        </Array>
                    </mxGeometry>
                </mxCell>
                <mxCell id="C7HsR-Ec4E76aT7hr7PR-3" style="edgeStyle=orthogonalEdgeStyle;rounded=0;orthogonalLoop=1;jettySize=auto;html=1;endArrow=none;endFill=0;" edge="1" parent="1" source="C7HsR-Ec4E76aT7hr7PR-2" target="zPEs7_Zzb0psSSp__cFE-2">
                    <mxGeometry relative="1" as="geometry">
                        <Array as="points">
                            <mxPoint x="130" y="230"/>
                            <mxPoint x="180" y="230"/>
                        </Array>
                    </mxGeometry>
                </mxCell>
                <mxCell id="C7HsR-Ec4E76aT7hr7PR-2" value="BelongsTo" style="ellipse;whiteSpace=wrap;html=1;align=center;rotation=75;" vertex="1" parent="1">
                    <mxGeometry x="80" y="140" width="100" height="40" as="geometry"/>
                </mxCell>
                <mxCell id="8jnwg-T146BHlQQZsqlL-20" value="" style="edgeStyle=orthogonalEdgeStyle;rounded=0;orthogonalLoop=1;jettySize=auto;html=1;endArrow=none;endFill=0;" edge="1" parent="1" source="C7HsR-Ec4E76aT7hr7PR-11" target="zPEs7_Zzb0psSSp__cFE-3">
                    <mxGeometry relative="1" as="geometry">
                        <Array as="points">
                            <mxPoint x="680" y="250"/>
                            <mxPoint x="630" y="250"/>
                        </Array>
                    </mxGeometry>
                </mxCell>
                <mxCell id="C7HsR-Ec4E76aT7hr7PR-11" value="Email" style="ellipse;whiteSpace=wrap;html=1;align=center;rotation=75;" vertex="1" parent="1">
                    <mxGeometry x="630" y="130" width="100" height="40" as="geometry"/>
                </mxCell>
                <mxCell id="8jnwg-T146BHlQQZsqlL-19" value="" style="edgeStyle=orthogonalEdgeStyle;rounded=0;orthogonalLoop=1;jettySize=auto;html=1;endArrow=none;endFill=0;" edge="1" parent="1" source="C7HsR-Ec4E76aT7hr7PR-12" target="zPEs7_Zzb0psSSp__cFE-3">
                    <mxGeometry relative="1" as="geometry">
                        <Array as="points">
                            <mxPoint x="650" y="250"/>
                            <mxPoint x="630" y="250"/>
                        </Array>
                    </mxGeometry>
                </mxCell>
                <mxCell id="C7HsR-Ec4E76aT7hr7PR-12" value="Name" style="ellipse;whiteSpace=wrap;html=1;align=center;rotation=75;" vertex="1" parent="1">
                    <mxGeometry x="600" y="140" width="100" height="40" as="geometry"/>
                </mxCell>
                <mxCell id="8jnwg-T146BHlQQZsqlL-18" value="" style="edgeStyle=orthogonalEdgeStyle;rounded=0;orthogonalLoop=1;jettySize=auto;html=1;endArrow=none;endFill=0;" edge="1" parent="1" source="cQpDTte1nrfgPv7ZpkM7-1" target="zPEs7_Zzb0psSSp__cFE-3">
                    <mxGeometry relative="1" as="geometry">
                        <Array as="points">
                            <mxPoint x="620" y="250"/>
                            <mxPoint x="630" y="250"/>
                        </Array>
                    </mxGeometry>
                </mxCell>
                <mxCell id="cQpDTte1nrfgPv7ZpkM7-1" value="When" style="ellipse;whiteSpace=wrap;html=1;align=center;rotation=75;" vertex="1" parent="1">
                    <mxGeometry x="570" y="150" width="100" height="40" as="geometry"/>
                </mxCell>
                <mxCell id="8jnwg-T146BHlQQZsqlL-17" value="" style="edgeStyle=orthogonalEdgeStyle;rounded=0;orthogonalLoop=1;jettySize=auto;html=1;endArrow=none;endFill=0;" edge="1" parent="1" source="TyS43IgVn28y051WMsMj-1" target="zPEs7_Zzb0psSSp__cFE-3">
                    <mxGeometry relative="1" as="geometry">
                        <Array as="points">
                            <mxPoint x="590" y="250"/>
                            <mxPoint x="630" y="250"/>
                        </Array>
                    </mxGeometry>
                </mxCell>
                <mxCell id="TyS43IgVn28y051WMsMj-1" value="&lt;u&gt;Id&lt;/u&gt;" style="ellipse;whiteSpace=wrap;html=1;align=center;rotation=75;" vertex="1" parent="1">
                    <mxGeometry x="540" y="160" width="100" height="40" as="geometry"/>
                </mxCell>
                <mxCell id="8jnwg-T146BHlQQZsqlL-14" value="" style="edgeStyle=orthogonalEdgeStyle;rounded=0;orthogonalLoop=1;jettySize=auto;html=1;endArrow=none;endFill=0;" edge="1" parent="1" source="C7HsR-Ec4E76aT7hr7PR-10" target="zPEs7_Zzb0psSSp__cFE-1">
                    <mxGeometry relative="1" as="geometry">
                        <Array as="points">
                            <mxPoint x="368" y="210"/>
                            <mxPoint x="400" y="210"/>
                        </Array>
                    </mxGeometry>
                </mxCell>
                <mxCell id="wfUSnm8ph-DHiuBE5ZHb-4" value="0..N" style="edgeStyle=orthogonalEdgeStyle;rounded=0;orthogonalLoop=1;jettySize=auto;html=1;endArrow=none;endFill=0;" edge="1" parent="1" source="wfUSnm8ph-DHiuBE5ZHb-3" target="zPEs7_Zzb0psSSp__cFE-1">
                    <mxGeometry x="0.7203" relative="1" as="geometry">
                        <Array as="points">
                            <mxPoint x="400" y="360"/>
                        </Array>
                        <mxPoint as="offset"/>
                    </mxGeometry>
                </mxCell>
                <mxCell id="GQVKQVq23qvjpslXkNpU-1" value="Uri" style="ellipse;whiteSpace=wrap;html=1;align=center;rotation=75;" vertex="1" parent="1">
                    <mxGeometry x="350" y="120" width="100" height="40" as="geometry"/>
                </mxCell>
                <mxCell id="C7HsR-Ec4E76aT7hr7PR-10" value="&lt;u&gt;Id&lt;/u&gt;" style="ellipse;whiteSpace=wrap;html=1;align=center;rotation=75;" vertex="1" parent="1">
                    <mxGeometry x="318" y="130" width="100" height="40" as="geometry"/>
                </mxCell>
                <mxCell id="wfUSnm8ph-DHiuBE5ZHb-7" value="Holds" style="shape=rhombus;perimeter=rhombusPerimeter;whiteSpace=wrap;html=1;align=center;" vertex="1" parent="1">
                    <mxGeometry x="321" y="440" width="120" height="60" as="geometry"/>
                </mxCell>
                <mxCell id="zPEs7_Zzb0psSSp__cFE-10" value="CommitterWhen" style="ellipse;whiteSpace=wrap;html=1;align=center;rotation=75;" vertex="1" parent="1">
                    <mxGeometry x="50" y="150" width="100" height="40" as="geometry"/>
                </mxCell>
                <mxCell id="wfUSnm8ph-DHiuBE5ZHb-5" style="edgeStyle=orthogonalEdgeStyle;rounded=0;orthogonalLoop=1;jettySize=auto;html=1;endArrow=none;endFill=0;" edge="1" parent="1">
                    <mxGeometry relative="1" as="geometry">
                        <Array as="points">
                            <mxPoint x="210" y="360"/>
                        </Array>
                        <mxPoint x="257.0281690140845" y="360.01408450704224" as="sourcePoint"/>
                        <mxPoint x="210" y="300" as="targetPoint"/>
                    </mxGeometry>
                </mxCell>
                <mxCell id="wfUSnm8ph-DHiuBE5ZHb-6" value="1..1" style="edgeLabel;html=1;align=center;verticalAlign=middle;resizable=0;points=[];" vertex="1" connectable="0" parent="wfUSnm8ph-DHiuBE5ZHb-5">
                    <mxGeometry x="0.7882" relative="1" as="geometry">
                        <mxPoint y="9" as="offset"/>
                    </mxGeometry>
                </mxCell>
                <mxCell id="wfUSnm8ph-DHiuBE5ZHb-3" value="Holds" style="shape=rhombus;perimeter=rhombusPerimeter;whiteSpace=wrap;html=1;align=center;" vertex="1" parent="1">
                    <mxGeometry x="240" y="330" width="120" height="60" as="geometry"/>
                </mxCell>
            </root>
        </mxGraphModel>
    </diagram>
</mxfile>